#!OML:ASF H:\ManfredETheater\Project 1\Capture day 1\Session 1\subject.ASF
:FULLY-SPECIFIED
:DEGREES
141
root 5.92818 11.7401 -13.4042 50.8715 -79.6418 -31.2359
lowerback 59.6339 -1.82473 5.8661
upperback 12.6018 -1.22197 1.07961
thorax -7.12767 -1.52314 -0.707872
lowerneck -8.95291 42.7584 4.23698
upperneck 5.91658 64.6361 1.29188
head 30.4546 -38.6606 148.05
rclavicle 4.21423e-014 1.88348e-014
rhumerus -3.16216 -7.89913 -55.6141
rradius 66.8489
rwrist -27.5276
rhand -24.031 -2.95062
rfingers 7.12502
rthumb 2.44744 -32.9163
lclavicle 4.21423e-014 1.88348e-014
lhumerus -38.1012 8.15542 77.3207
lradius 125.655
lwrist 4.21796
lhand -28.3297 3.86572
lfingers 7.12502
lthumb -1.70431 33.8387
rfemur -82.3366 -25.3602 3.45212
rtibia 109.049
rfoot -11.1417 -4.25481
rtoes -25.2014
lfemur -88.1844 38.0907 -11.3911
ltibia 115.536
lfoot -31.0338 -23.8865
ltoes -12.5508
142
root 5.92105 11.7774 -13.2172 47.841 -79.6667 -28.6837
lowerback 59.9341 -2.01437 5.87355
upperback 12.5759 -1.41895 1.00036
thorax -7.17119 -1.60565 -0.705549
lowerneck -8.2648 43.007 4.78149
upperneck 6.21411 64.5768 1.70674
head 30.1473 -38.0925 148.353
rclavicle -4.37326e-015 6.16232e-015
rhumerus -3.21151 -7.68915 -55.7281
rradius 65.799
rwrist -27.0618
rhand -24.0587 -2.63218
rfingers 7.12502
rthumb 2.42062 -32.5982
lclavicle -4.37326e-015 6.16232e-015
lhumerus -37.9169 7.79561 77.1822
lradius 125.461
lwrist 4.4899
lhand -27.799 3.69615
lfingers 7.12502
lthumb -1.19183 33.6726
rfemur -82.962 -26.102 5.48143
rtibia 111.036
rfoot -12.7381 -3.47051
rtoes -26.321
lfemur -88.1256 37.7029 -12.5577
ltibia 116.148
lfoot -29.7577 -24.719
ltoes -11.2611
143
root 5.91351 11.8109 -13.0319 44.632 -79.7519 -25.8834
lowerback 60.1766 -2.16542 5.85839
upperback 12.5475 -1.58712 0.903524
thorax -7.21646 -1.67192 -0.726943
lowerneck -7.65528 43.1705 5.25108
upperneck 6.48579 64.465 2.08532
head 29.8706 -37.5835 148.615
rclavicle 2.34566e-014 6.26172e-015
rhumerus -3.28728 -7.46799 -55.7567
rradius 64.8345
rwrist -26.7837
rhand -24.1086 -2.43831
rfingers 7.12502
rthumb 2.37245 -32.4049
lclavicle 2.34566e-014 6.26172e-015
lhumerus -37.7034 7.48954 77.053
lradius 125.27
lwrist 4.73145
lhand -27.2413 3.43754
lfingers 7.12502
lthumb -0.653137 33.4163
rfemur -83.7924 -26.884 7.80112
rtibia 113.092
rfoot -14.1489 -2.91873
rtoes -27.0661
lfemur -88.1412 37.3825 -13.8063
ltibia 116.737
lfoot -28.1955 -25.749
ltoes -9.90348
144
root 5.90526 11.8402 -12.8468 41.4099 -79.9069 -22.9999
lowerback 60.3696 -2.26001 5.81812
upperback 12.5161 -1.70927 0.79568
thorax -7.2642 -1.71589 -0.770975
lowerneck -7.13214 43.2455 5.62641
upperneck 6.72903 64.3058 2.42028
head 29.6302 -37.1524 148.834
rclavicle 1.70955e-014 6.95746e-015
rhumerus -3.38966 -7.22935 -55.6771
rradius 63.9897
rwrist -26.7062
rhand -24.1515 -2.32865
rfingers 7.12502
rthumb 2.33108 -32.2957
lclavicle 1.70955e-014 6.95746e-015
lhumerus -37.4707 7.25088 76.9473
lradius 125.082
lwrist 4.95114
lhand -26.7228 3.15022
lfingers 7.12502
lthumb -0.152348 33.1299
rfemur -84.825 -27.6167 10.4375
rtibia 115.144
rfoot -15.3742 -2.67072
rtoes -27.5657
lfemur -88.2394 37.1858 -15.0974
ltibia 117.312
lfoot -26.2636 -27.0355
ltoes -8.46684
145
root 5.89624 11.865 -12.6605 38.2366 -80.144 -20.0917
lowerback 60.5212 -2.2936 5.74569
upperback 12.4784 -1.7852 0.675754
thorax -7.31893 -1.73812 -0.835637
lowerneck -6.6952 43.2379 5.89829
upperneck 6.94458 64.108 2.70877
head 29.4321 -36.8151 149.008
rclavicle -1.90833e-014 -2.94698e-014
rhumerus -3.50115 -6.95842 -55.499
rradius 63.2816
rwrist -26.7771
rhand -24.1795 -2.2539
rfingers 7.12502
rthumb 2.30402 -32.2212
lclavicle -1.90833e-014 -2.94698e-014
lhumerus -37.2426 7.09726 76.8708
lradius 124.902
lwrist 5.14565
lhand -26.3061 2.85775
lfingers 7.12502
lthumb 0.250118 32.8373
rfemur -86.0303 -28.216 13.3621
rtibia 117.111
rfoot -16.4602 -2.69214
rtoes -27.9546
lfemur -88.4347 37.1476 -16.3982
ltibia 117.875
lfoot -23.8146 -28.6565
ltoes -6.82745
